/* XPM */
static char *_449b798aefb4e75c08092bf87b22458gvmt5H0QjXD49Hqo[] = {
/* columns rows colors chars-per-pixel */
"64 64 137 2 ",
"   c #010001",
".  c #0E0000",
"X  c #000008",
"o  c #1C0004",
"O  c #150105",
"+  c #000212",
"@  c #00061D",
"#  c #200004",
"$  c #2B1404",
"%  c #341804",
"&  c #351A08",
"*  c #3A1F09",
"=  c #331701",
"-  c #0D0F2F",
";  c #001B27",
":  c #001F2D",
">  c #00212F",
",  c #002230",
"<  c #002739",
"1  c #002B3D",
"2  c #410001",
"3  c #4D020F",
"4  c #401E06",
"5  c #4E0310",
"6  c #510210",
"7  c #5D0212",
"8  c #7F0006",
"9  c #7F0008",
"0  c #6A0214",
"q  c #600312",
"w  c #750216",
"e  c #7B0216",
"r  c #452006",
"t  c #432009",
"y  c #5D2D0D",
"u  c #612F0D",
"i  c #773B13",
"p  c #793C13",
"a  c #00344B",
"s  c #1E215C",
"d  c #003A53",
"f  c #0E1C6A",
"g  c #121E6C",
"h  c #22266E",
"j  c #26296F",
"k  c #262A75",
"l  c #004B6C",
"z  c #004564",
"x  c #624147",
"c  c #765665",
"v  c #800007",
"b  c #810009",
"n  c #860014",
"m  c #880015",
"M  c #920016",
"N  c #940218",
"B  c #894007",
"V  c #974B19",
"C  c #FE7A19",
"Z  c #EB7927",
"A  c #FF7F27",
"S  c #F77F29",
"D  c #FF7F29",
"F  c #895C68",
"G  c #A06D7F",
"H  c #C1546C",
"J  c #C35770",
"K  c #C55B74",
"L  c #C75E79",
"P  c #C85E78",
"I  c #CC637D",
"U  c #FE8127",
"Y  c #F78029",
"T  c #FE822A",
"R  c #FF892B",
"E  c #FC8A54",
"W  c #FD8D5C",
"Q  c #FC8E62",
"!  c #FB9468",
"~  c #2E328B",
"^  c #35399E",
"/  c #353AA0",
"(  c #393FAF",
")  c #005781",
"_  c #025B83",
"`  c #3A40AF",
"'  c #3B40B2",
"]  c #7D5C81",
"[  c #2E3FCC",
"{  c #2F40CC",
"}  c #3D46C7",
"|  c #3E47CA",
" . c #3F48CC",
".. c #3243D7",
"X. c #4249CB",
"o. c #424CD7",
"O. c #444DDB",
"+. c #4850DE",
"@. c #7E6BCB",
"#. c #454FE0",
"$. c #CE6780",
"%. c #CF6882",
"&. c #836DCB",
"*. c #896FCA",
"=. c #8D73CB",
"-. c #9376CB",
";. c #8E73D5",
":. c #0197D9",
">. c #0199DB",
",. c #009FE5",
"<. c #01A1E7",
"1. c #00A2E8",
"2. c #00A7F0",
"3. c #01A8F1",
"4. c #00ACF7",
"5. c #01AAF4",
"6. c #00ADF9",
"7. c #03B1FD",
"8. c #6DA7DA",
"9. c #74A7D9",
"0. c #7DA7D8",
"q. c #7CA8D8",
"w. c #E2A0BA",
"e. c #85A7D7",
"r. c #89A8D7",
"t. c #80A7D8",
"y. c #8BAEDF",
"u. c #FFB4C6",
"i. c #FFB6CE",
"p. c #FFBBD6",
"a. c #FFBCDB",
"s. c #FFBFD8",
"d. c #FFBCDC",
"f. c #FFBEDF",
"g. c #FFBADB",
"h. c #FFBEE0",
"j. c #FFC4E5",
/* pixels */
"w.G . o o o o o o o o o o o o o o o o o o o o o o o o o o o o o o o o o o o o o o o o o o o o o o o o o o o o o o o o o o # O   ",
"x p.L v m m m m m m m m m m m m m m m m m m m m m m m m m m m m m m m m m m m m m m m m m m m m m m m m m m m m m m m n m n o   ",
"= E a.I v m m m m m m m m m m m m m m m m m m m m m m m m m m m m m m m m m m m m m m m m m m m m m m m m m m m m m n m n o , ; ",
"& C E a.P 9 m m n n n n n n n n n n n n n n n n n n n n n n n n n n n n n n n n n n n n n n n n n n n n n n n n m n m e o ; >.< ",
"& T C E a.P 9 m m n m m m m m m m m m m m m m m m m m m m m m m m m m m m m m m m m m m m m m m m m m m m m n m n m w . ; >.5.: ",
"& A T C E a.P 9 m m n m m m m m m m m m m m m m m m m m m m m m m m m m m m m m m m m m m m m m m m m m m n m n m w . ; :.5.,., ",
"& A A D C E a.P 9 m m n m m m m m m m m m m m m m m m m m m m m m m m m m m m m m m m m m m m m m m m m n m n m w . > :.2.,.1., ",
"& A A A T C E a.K 9 m m n m m m m m m m m m m m m m m m m m m m m m m m m m m m m m m m m m m m m m m n m n m w . 1 1.1.,.1.1., ",
"& A A A A T C E a.K 9 m m n m m m m m m m m m m m m m m m m m m m m m m m m m m m m m m m m m m m m n m n m w . 1 1.1.,.1.1.1., ",
"& A A A A A T C E a.K 9 m m n m m m m m m m m m m m m m m m m m m m m m m m m m m m m m m m m m m n m n m w . 1 1.1.<.1.<.1.1., ",
"& A A A A A A T C E a.K 9 m m n m m m m m m m m m m m m m m m m m m m m m m m m m m m m m m m m n m n M w . 1 1.1.<.1.<.<.1.1., ",
"& A A A A A A A T C W a.K 9 m m n m m m m m m m m m m m m m m m m m m m m m m m m m m m m m m n m n m w . 1 1.1.<.1.<.1.<.1.1., ",
"& A A A A A A A A T C W d.J 9 m m n m m m m m m m m m m m m m m m m m m m m m m m m m m m m n m n M 0   1 1.1.<.1.<.1.1.<.1.1., ",
"& A A A A A A A A A T C W d.H 9 m m n m m m m m m m m m m m m m m m m m m m m m m m m m m n m n M 0   1 <.1.<.1.<.1.1.1.<.1.1., ",
"& A A A A A A A A A A T C W d.H 9 m m n m m m m m m m m m m m m m m m m m m m m m m m m m m n M 0   a <.1.<.1.<.1.1.1.1.<.1.1., ",
"& A A A A A A A A A A A T C W d.H 9 m m n m m m m m m m m m m m m m m m m m m m m m m n m n M 0   d 5.1.<.1.<.1.1.1.1.1.<.1.1., ",
"& A A A A A A A A A A A A T C W d.H 9 m m n m m m m m m m m m m m m m m m m m m m m n m n M 0   d 5.1.<.1.<.1.1.1.1.1.1.<.1.1., ",
"& A A A A A A A A A A A A A T C W d.H 9 m m n m m m m m m m m m m m m m m m m m n n m n M 0   d 5.1.<.1.<.1.1.1.1.1.1.1.<.1.1., ",
"& A A A A A A A A A A A A A A T C W d.H 9 m m n m m m m m m m m m m m m m m m n m m n M 0   d 5.1.<.1.<.1.1.1.1.1.1.1.1.<.1.1., ",
"& A A A A A A A A A A A A A A A T C W d.H 9 m m n m m m m m m m m m m m m m n m m n M q   d 5.1.<.1.<.1.1.1.1.1.1.1.1.1.<.1.1., ",
"& A A A A A A A A A A A A A A A A T C Q g.K b n m n m m m m m m m m m m m n m m n M 7   d 5.1.<.1.<.1.1.1.1.1.1.1.1.1.1.<.1.1., ",
"& A A A A A A A A A A A A A A A A A T C W h.%.b m m n m m m m m m m m m m m m n M 7   d 5.1.<.1.<.1.1.1.1.1.1.1.1.1.1.1.<.1.1., ",
"& A A A A A A A A A A A A A A A A A A D C W d.%.b m m n m m m m m m m m n m n M 7   z 1.1.<.1.<.1.1.1.1.1.1.1.1.1.1.1.1.<.1.1., ",
"& A A A A A A A A A A A A A A A A A A A D C Q d.$.b m m n m m m m m m n m n M 7   l 6.<.<.1.<.1.1.1.1.1.1.1.1.1.1.1.1.1.<.1.1., ",
"& A A A A A A A A A A A A A A A A A A A A D C Q d.I b m m n m m m m n m n M 7   l 6.<.<.1.<.1.1.1.1.1.1.1.1.1.1.1.1.1.1.<.1.1., ",
"& A A A A A A A A A A A A A A A A A A A A A D C Q d.I b m m n m n m m n M 7   l 6.<.<.1.<.1.1.1.1.1.1.1.1.1.1.1.1.1.1.1.<.1.1., ",
"& A A A A A A A A A A A A A A A A A A A A A A D C Q d.I b m m n m n n M 7   l 6.<.<.1.<.1.1.1.1.1.1.1.1.1.1.1.1.1.1.1.1.<.1.1., ",
"& A A A A A A A A A A A A A A A A A A A A A A A D C Q h.I b m m n n M 6   l 4.<.<.1.<.1.1.1.1.1.1.1.1.1.1.1.1.1.1.1.1.1.<.1.1., ",
"& A A A A A A A A A A A A A A A A A A A A A A A A D C Q h.I b m n M 3   l 4.<.<.1.<.1.1.1.1.1.1.1.1.1.1.1.1.1.1.1.1.1.1.<.1.1., ",
"& A A A A A A A A A A A A A A A A A A A A A A A A A D C Q h.I 9 N 5   l 4.<.<.1.<.1.1.1.1.1.1.1.1.1.1.1.1.1.1.1.1.1.1.1.<.1.1., ",
"& A A A A A A A A A A A A A A A A A A A A A A A A A A D C Q h.I 2   _ 4.<.<.1.<.1.1.1.1.1.1.1.1.1.1.1.1.1.1.1.1.1.1.1.1.<.1.1., ",
"& A A A A A A A A A A A A A A A A A A A A A A A A A A A D C ! j.F ) 7.<.<.1.<.1.1.1.1.1.1.1.1.1.1.1.1.1.1.1.1.1.1.1.1.1.<.1.1., ",
"& A A A A A A A A A A A A A A A A A A A A A A A A A A A A R B x a.y.,.<.<.1.<.1.1.1.1.1.1.1.1.1.1.1.1.1.1.1.1.1.1.1.1.1.<.1.1., ",
"& A A A A A A A A A A A A A A A A A A A A A A A A A A A R V   g =.u.r.1.<.<.1.<.1.1.1.1.1.1.1.1.1.1.1.1.1.1.1.1.1.1.1.1.<.1.1., ",
"& A A A A A A A A A A A A A A A A A A A A A A A A A A R V   k +.[ =.u.r.1.<.<.1.<.1.1.1.1.1.1.1.1.1.1.1.1.1.1.1.1.1.1.1.<.1.1., ",
"& A A A A A A A A A A A A A A A A A A A A A A A A A T p   k O.| X.[ =.u.e.1.<.<.1.<.1.1.1.1.1.1.1.1.1.1.1.1.1.1.1.1.1.1.<.1.1., ",
"& A A A A A A A A A A A A A A A A A A A A A A A A R i   k O.| |  .X.[ =.u.e.1.<.<.1.1.1.1.1.1.1.1.1.1.1.1.1.1.1.1.1.1.1.<.1.1., ",
"& A A A A A A A A A A A A A A A A A A A A A A A R i   k O.| |  .|  .X.{ =.u.e.1.<.<.1.1.1.1.1.1.1.1.1.1.1.1.1.1.1.1.1.1.<.1.1., ",
"& A A A A A A A A A A A A A A A A A A A A A A R i   ~ O.| |  .|  . . .X.{ -.u.e.1.<.<.1.1.1.1.1.1.1.1.1.1.1.1.1.1.1.1.1.<.1.1., ",
"& A A A A A A A A A A A A A A A A A A A A A R p   ~ O.} |  .|  . . . . .X.{ -.u.e.1.<.<.1.1.1.1.1.1.1.1.1.1.1.1.1.1.1.1.<.1.1., ",
"& A A A A A A A A A A A A A A A A A A A A R p   ~ O.}  . . . . . . . . . .X.{ -.u.e.1.<.<.1.1.1.1.1.1.1.1.1.1.1.1.1.1.1.<.1.1., ",
"& A A A A A A A A A A A A A A A A A A A R p   ~ O.}  . . . . . . . . . . . .X.{ -.u.t.1.<.<.1.1.1.1.1.1.1.1.1.1.1.1.1.1.<.1.1., ",
"& A A A A A A A A A A A A A A A A A A T p   ~ O.}  . . . . . . . . . . . . . .X.{ -.u.0.1.<.<.1.1.1.1.1.1.1.1.1.1.1.1.1.<.1.1., ",
"& A A A A A A A A A A A A A A A A A T y   ~ O.}  . . . . . . . . . . . . . . . .X.{ -.u.0.1.<.<.1.1.1.1.1.1.1.1.1.1.1.1.<.1.1., ",
"& A A A A A A A A A A A A A A A A T y   ~ O.}  . . . . . . . . . . . . . . . . . .X.{ -.u.0.1.<.<.1.1.1.1.1.1.1.1.1.1.1.<.1.1., ",
"& A A A A A A A A A A A A A A A T y   ~ O.}  . . . . . . . . . . . . . . . . . . . .X.{ -.u.0.1.<.<.1.1.1.1.1.1.1.1.1.1.<.1.1., ",
"& A A A A A A A A A A A A A A T y X / O.|  . . . . . . . . . . . . . . . . . . . . . .X.{ @.u.0.1.<.<.1.1.1.1.1.1.1.1.1.<.1.1., ",
"& A A A A A A A A A A A A A T y X / O.}  . . . . . . . . . . . . . . . . . . . . . . . .X.[ @.u.0.1.<.<.1.1.1.1.1.1.1.1.<.1.1., ",
"& A A A A A A A A A A A A T u X / O.}  .|  . . . . . . . . . . . . . . . . . . . . . . . .X.[ @.u.q.1.<.<.1.1.1.1.1.1.1.<.1.1., ",
"& A A A A A A A A A A A T u X / O.}  .|  . . . . . . . . . . . . . . . . . . . . . . . . . .X.[ @.u.q.1.<.<.1.1.1.1.1.1.<.1.1., ",
"& A A A A A A A A A U Y y X ^ O.}  .|  . . . . . . . . . . . . . . . . . . . . . . . . . . . .X.[ &.u.q.1.<.<.1.1.1.1.1.<.1.1., ",
"& A A A A A A A A U S t X ^ O.}  .|  . . . . . . . . . . . . . . . . . . . . . . . . . . . . . .X.[ &.u.9.1.<.<.1.1.1.1.<.1.1., ",
"& A A A A A A A U Y t X ^ O.}  .|  . . . . . . . . . . . . . . . . . . . . . . . . . . . . . . . .X.[ &.u.9.1.<.<.1.1.1.<.1.1., ",
"& A A A A A A U Y t + / O.}  .|  . . . . . . . . . . . . . . . . . . . . . . . . . . . . . . . . . .X.[ &.u.9.1.<.<.1.1.<.1.1., ",
"& A A A A A U Y r + ' O.}  .|  . . . . . . . . . . . . . . . . . . . . . . . . . . . . . . . . . . . .X.[ &.u.9.1.<.<.1.<.1.1., ",
"& A A A A U Y r + ' o.}  .|  . . . . . . . . . . . . . . . . . . . . . . . . . . . . . . . . . . . . . .X.[ &.u.9.1.<.<.<.1.1., ",
"& A A A U Y r + ' o.|  .|  . . . . . . . . . . . . . . . . . . . . . . . . . . . . . . . . . . . . . . . .X.[ &.u.9.1.<.<.1.1., ",
"& A A U Y r + ' o.|  .|  . . . . . . . . . . . . . . . . . . . . . . . . . . . . . . . . . . . . . . . . . .X.[ &.u.9.1.<.1.1., ",
"& A T Z 4 + ' o.|  .|  . . . . . . . . . . . . . . . . . . . . . . . . . . . . . . . . . . . . . . . . . . . .X.[ &.u.8.1.<.1., ",
"& T Z $ + ' o.|  .|  . . . . . . . . . . . . . . . . . . . . . . . . . . . . . . . . . . . . . . . . . . . . . .X.[ *.u.8.1.<., ",
"* Z $ + ` o.|  .|  . . . . . . . . . . . . . . . . . . . . . . . . . . . . . . . . . . . . . . . . . . . . . . . .X.[ =.u.8.1., ",
"$ = @ ( o.} | | | | | | | | | | | | | | | | | | | | | | | | | | | | | | | | | | | | | | | | | | | | | | | | | | | | X.[ *.u.8., ",
"  - X.#.o.o.o.o.o.o.o.o.o.o.o.o.o.o.o.o.o.o.o.o.o.o.o.o.o.o.o.o.o.o.o.o.o.o.o.o.o.o.o.o.o.o.o.o.o.o.o.o.o.o.o.o.o.o.o.o...;.p.c ",
"  s k h h h h h h h h h h h h h h h h h h h h h h h h h h h h h h h h h h h h h h h h h h h h h h h h h h h h h h h h h j f ] i."
};
