/* XPM */
static char *result[] = {
/* columns rows colors chars-per-pixel */
"64 64 135 2 ",
"   c #000000",
".  c #100700",
"X  c #001008",
"o  c #04180B",
"O  c #002010",
"+  c #34350D",
"@  c #431F00",
"#  c #422E06",
"$  c #4B3407",
"%  c #7F3F00",
"&  c #044823",
"*  c #00773C",
"=  c #047D3D",
"-  c #6F4105",
";  c #7D4303",
":  c #794906",
">  c #764D09",
",  c #794D0A",
"<  c #71560F",
"1  c #79510E",
"2  c #6D5B12",
"3  c #696116",
"4  c #66661A",
"5  c #636A1C",
"6  c #456521",
"7  c #5C7423",
"8  c #597A27",
"9  c #577C28",
"0  c #587A28",
"q  c #823C00",
"w  c #8C3B01",
"e  c #953500",
"r  c #993401",
"t  c #A42D00",
"y  c #AC2901",
"u  c #BD2000",
"i  c #BF3F1F",
"p  c #C41E01",
"a  c #DF1F0F",
"s  c #EF0F07",
"d  c #F60702",
"f  c #FE0100",
"g  c #F40A05",
"h  c #E21204",
"j  c #E7170C",
"k  c #EB140A",
"l  c #E41A0D",
"z  c #CF2F17",
"x  c #CF2F18",
"c  c #DC2211",
"v  c #D32C16",
"b  c #C7371C",
"n  c #CB3319",
"m  c #C33B1D",
"M  c #A64216",
"N  c #9F5F2F",
"B  c #AF4F28",
"V  c #B74723",
"C  c #BC4321",
"Z  c #B24C26",
"A  c #AB532A",
"S  c #A25C2E",
"D  c #A05E30",
"F  c #8F6F38",
"G  c #9A6432",
"H  c #946A35",
"J  c #87773B",
"K  c #8B7339",
"L  c #847A3E",
"P  c #3DA03F",
"I  c #52842D",
"U  c #4F8730",
"Y  c #4E8931",
"T  c #538A34",
"R  c #46963A",
"E  c #4E943B",
"W  c #429B3D",
"Q  c #008442",
"!  c #3F9F40",
"~  c #1CBC57",
"^  c #3DA443",
"/  c #39AA47",
"(  c #36AD49",
")  c #31B54E",
"_  c #2BBD54",
"`  c #3FBF60",
"'  c #5B9746",
"]  c #5F9F4F",
"[  c #5F9F50",
"{  c #6F8F48",
"}  c #778744",
"|  c #7A8442",
" . c #758944",
".. c #708E48",
"X. c #639244",
"o. c #67974C",
"O. c #6A944A",
"+. c #639B4E",
"@. c #5CA251",
"#. c #54AA55",
"$. c #4BB35A",
"%. c #44BA5D",
"&. c #28C157",
"*. c #26C55A",
"=. c #28C259",
"-. c #21CE5F",
";. c #34C45F",
":. c #1BCF60",
">. c #1DD363",
",. c #19D966",
"<. c #16DD69",
"1. c #18D968",
"2. c #20CE60",
"3. c #2FCF69",
"4. c #37C764",
"5. c #3BC362",
"6. c #32CC66",
"7. c #31CE68",
"8. c #21D566",
"9. c #27D76C",
"0. c #2AD46A",
"q. c #24DA6E",
"w. c #20DE70",
"e. c #12E36D",
"r. c #00E774",
"t. c #0FE770",
"y. c #00EA76",
"u. c #0CEC73",
"i. c #17E774",
"p. c #1BE372",
"a. c #13EB76",
"s. c #06F67B",
"d. c #0BF37A",
"f. c #01FD7F",
"g. c #00FF80",
/* pixels */
"g.g.g.g.g.g.g.g.g.g.g.g.s.&                                                                                                     ",
"g.g.g.g.g.g.g.g.g.g.g.g.-.# . o O O O O O O O O O O O O O O O O O O O O O O O O O O O O O O O O O O O O O O O O O O O O O O X   ",
"g.g.g.g.g.f.g.g.g.g.g.s.9 q - ~ y.r.r.r.r.r.r.r.r.r.r.r.r.r.r.r.r.r.r.r.r.r.r.r.r.r.r.r.r.r.r.r.r.r.r.r.r.r.r.r.r.r.r.r.y.y.*   ",
"g.g.g.f.g.g.g.g.g.f.g.,.: q 9 s.g.f.g.g.g.g.g.g.g.g.g.g.g.g.g.g.g.g.g.g.g.g.g.g.g.g.g.g.g.g.g.g.g.g.g.g.g.g.g.g.g.g.g.g.g.g.Q   ",
"g.g.g.g.g.g.g.g.g.g.g.^ ; q _ g.f.g.g.g.g.g.g.g.g.g.g.g.g.g.g.g.g.g.g.f.g.g.g.g.g.g.g.g.g.g.g.g.g.g.g.g.g.g.g.g.g.g.g.g.g.g.Q   ",
"g.g.g.g.g.g.g.g.g.g.t.2 q 2 i.g.g.g.g.g.g.g.g.g.g.g.g.g.g.g.g.g.g.g.g.g.g.g.g.f.g.g.g.g.g.g.g.g.g.g.g.g.g.g.g.g.g.g.g.g.g.g.Q   ",
"g.g.g.g.g.g.f.g.g.g.,.; q ^ g.f.g.g.g.g.g.g.g.g.g.g.g.g.g.g.g.g.g.g.g.g.g.g.g.g.g.g.g.g.g.g.g.g.g.g.g.g.g.g.g.f.g.g.g.g.g.g.Q   ",
"g.g.f.g.g.g.g.g.g.g.*.; q =.g.g.g.g.g.g.g.f.g.g.g.f.g.g.f.g.g.g.g.g.g.g.g.g.g.g.g.g.g.g.g.g.g.g.g.g.g.g.g.g.g.g.g.g.g.g.g.g.Q   ",
"g.g.g.g.g.g.g.g.g.s.9 q : :.g.g.g.g.g.g.g.g.g.g.g.g.g.g.g.g.g.g.g.g.f.g.g.g.g.g.g.g.w.4.7.7.7.d.g.g.g.g.g.g.g.g.g.g.g.g.g.g.Q   ",
"g.g.g.g.g.g.g.g.g.1.: q 9 s.g.g.g.g.g.g.g.g.g.g.g.g.g.g.g.g.g.g.g.g.g.p.6.%.G D D D v d g g g C D D #.w.g.g.g.g.g.g.g.g.g.g.Q   ",
"g.g.g.g.g.g.g.g.g.1.: q _ g.g.g.g.g.g.g.g.g.g.g.g.g.g.g.g.g.p.4.%.G S v g d f f f f f f f f f f f f d c L w.g.g.g.g.g.g.g.g.Q   ",
"g.g.g.g.g.g.g.g.g.*.; q _ g.g.g.g.g.g.g.g.g.g.g.g.g.g.i.%.G n d d f f f f f g n m m b | #.#.D n m s f f f v #.g.g.g.g.g.g.g.Q   ",
"g.g.g.g.g.g.g.g.g.U q : 2.g.g.g.g.g.g.g.g.g.g.i.5.%.G n d f f f f d n m L #.%.d.s.g.d.g.g.g.g.d.g.%.} v f f d } g.g.g.g.g.g.Q   ",
"g.g.g.g.g.g.g.g.g.I q 5 s.g.g.g.g.g.g.g.g.i.o.n f d f f f d n J #.%.d.g.g.g.g.g.g.g.g.g.g.g.g.g.g.g.g.p.} g f c 4.g.g.g.g.g.Q   ",
"g.g.g.g.g.g.g.g.g.7 q 5 g.g.g.g.g.s.7.O.B n f f f f d n K %.d.g.g.g.g.g.g.g.g.g.g.g.g.g.g.g.g.g.g.g.g.g.g.O.g f B g.g.g.g.g.Q   ",
"g.g.g.g.g.g.g.g.1.; q 9 g.g.a.%.+.V k f f f f l K $.%.d.g.g.g.f.g.g.g.g.g.g.g.g.g.g.g.g.g.g.g.g.g.g.g.g.g.g.A f f | g.g.g.g.Q   ",
"g.g.g.g.g.g.g.g.,.: q ~ 6.H n f f f f f l V F 0.g.g.g.g.g.g.g.g.g.g.g.g.g.g.g.g.g.g.g.g.g.g.g.g.g.g.g.g.g.g.q.c f B s.g.g.g.Q   ",
"g.g.g.g.g.g.g.g.1.: % i j f f f f l B +.0.f.g.g.f.g.g.g.g.g.g.g.g.g.g.g.g.g.g.g.g.g.g.g.g.g.g.g.g.g.g.g.g.g.s.A f s 0.g.g.g.Q   ",
"g.g.g.g.g.g.g.6.' ; % y f d b F ` 0.g.g.g.f.g.g.g.g.g.g.g.g.g.g.g.g.g.g.g.g.g.g.g.g.g.g.g.g.g.g.g.g.g.g.g.g.g.[ f g $.g.g.g.Q   ",
"g.s.g.g.a.[ C j d t ; r i ] u.g.g.g.g.g.g.g.g.g.g.g.g.g.g.g.g.g.g.g.g.g.s.g.g.g.g.g.g.g.g.g.g.g.g.g.g.g.g.g.g.%.s f H g.g.g.Q   ",
"g.g.a.@.b f f f f y % 1 0.g.g.g.g.g.g.g.g.g.g.g.g.g.g.g.g.g.g.g.g.g.g.g.g.g.g.g.g.g.g.g.g.g.g.g.g.g.g.g.g.g.g.d.x f F g.g.g.Q   ",
"a.[ m f f f j A +.E % % _ g.g.g.g.g.g.g.g.g.g.g.g.g.f.g.g.g.g.g.g.g.g.g.g.g.g.g.g.g.g.g.g.g.g.g.g.g.g.g.g.g.g.a.x f H g.g.g.Q   ",
"v d f f k G 7.g.g.1.: q ! g.g.g.g.f.g.g.g.g.g.g.g.g.g.g.g.f.g.g.g.g.g.g.g.g.g.g.g.g.g.g.g.g.g.g.g.g.g.g.g.g.g.d.x f H g.g.g.Q   ",
"f f k H 7.g.g.g.g.t.2 q 2 e.g.g.g.g.g.g.g.g.g.g.g.g.g.g.g.g.g.g.g.g.g.g.g.g.g.g.g.g.g.g.g.g.g.g.g.g.g.g.g.g.g.d.x f F g.g.g.Q   ",
"G K 6.g.g.g.g.g.g.g.^ : q 0 g.g.f.g.g.g.g.g.g.g.g.g.g.g.g.g.g.g.g.g.g.g.g.f.g.g.g.g.g.g.g.g.g.g.g.g.g.g.g.g.g.g.x f F g.g.g.Q   ",
"g.g.g.g.s.g.g.g.g.g.s.8 q : / g.g.f.g.g.g.g.g.g.g.g.g.g.g.g.g.f.g.g.g.g.g.g.g.g.g.g.g.g.g.g.g.g.g.g.g.g.g.g.g.7.l f H g.g.g.Q   ",
"g.g.g.g.g.g.g.g.g.g.g.1.2 q : / g.g.f.g.g.g.g.g.g.g.g.g.g.g.g.g.g.g.g.g.g.g.g.g.g.g.g.g.g.g.g.g.g.g.g.g.g.g.g.[ f f +.g.g.g.Q   ",
"g.g.g.g.g.g.g.g.g.g.g.g.1.< q : R e.g.g.g.g.g.g.g.g.g.g.g.g.g.g.g.g.g.g.g.g.g.g.g.g.g.g.g.g.g.g.g.g.g.g.g.g.g.+.f s 0.g.g.g.Q   ",
"g.g.g.g.g.g.g.g.g.g.g.f.g.^ : q q 5 _ f.g.g.g.g.g.g.g.g.g.g.g.g.g.g.g.g.g.g.g.g.g.g.g.g.g.g.g.g.g.g.g.g.g.g.g.O.f s 9.g.g.g.Q   ",
"g.g.g.g.g.g.g.g.g.g.g.g.g.s.:.5 % q : R 1.g.g.g.f.f.g.g.g.g.g.g.g.g.g.g.g.f.g.g.g.g.g.g.g.g.g.g.g.g.g.g.g.g.g.b f j q.g.g.g.Q   ",
"g.g.g.g.g.g.g.g.g.g.g.g.g.g.g.u.' > % % < R 1.s.g.g.f.g.g.g.g.g.g.g.g.g.g.g.g.g.g.g.g.g.g.g.g.g.g.g.g.g.g.g.g.x f D g.g.g.g.Q   ",
"g.g.g.g.g.g.g.g.g.g.f.g.g.g.g.g.f.:.4 % q q > 7 <.s.g.g.g.f.g.g.g.g.f.g.g.g.g.g.g.g.g.g.g.g.g.g.g.g.g.g.g.g.[ f f K g.g.g.g.Q   ",
"g.g.g.g.g.g.g.g.g.g.g.g.g.g.g.f.g.g.u.( 4 % q q , 7 _ u.g.g.g.g.g.f.g.g.g.g.g.g.g.g.g.g.g.g.g.g.g.g.g.g.g.g.O.f g 4.g.g.g.g.Q   ",
"g.g.g.g.g.g.g.f.g.g.f.g.g.g.g.g.g.g.g.g.u.) U q q q ; < R 1.d.g.g.g.f.g.g.g.g.g.g.g.g.g.g.g.f.g.g.g.g.g.g.s.i f j q.g.g.g.g.Q   ",
"g.g.g.f.g.g.g.g.g.g.g.g.g.g.f.g.g.g.g.g.g.g.s.) U , q q q > 7 _ i.d.f.g.g.g.f.g.g.g.g.g.g.g.g.g.g.g.g.g.g.s.n f D g.g.g.g.g.Q   ",
"g.g.g.g.g.g.g.g.g.g.g.g.g.g.g.g.g.g.g.g.g.g.g.g.g.:.! 5 % q q : > 7 &.t.g.g.g.f.g.g.g.g.g.g.g.g.g.f.g.g.g.4.j f G g.f.g.g.g.Q   ",
"g.g.g.g.g.g.g.g.g.g.g.g.g.g.g.g.g.g.g.g.g.g.g.g.g.g.g.u._ U : q q q : < R e.s.g.g.g.g.g.g.g.g.g.g.g.g.g.g.#.f d @.g.g.g.g.g.Q   ",
"g.f.g.g.g.g.g.g.g.g.g.f.g.g.g.g.g.g.g.g.g.g.g.g.g.g.g.g.g.s.>.( U : q q q 2 Y ! e.g.g.g.g.g.g.g.g.g.g.g.g.G f s 3.g.g.g.g.g.Q   ",
"g.g.g.g.g.g.g.g.g.g.g.g.g.g.g.g.g.g.g.g.g.g.g.g.g.g.g.g.g.g.g.g.s.>.^ 4 q q q q < R e.f.g.g.g.g.g.g.g.g.4.k f i g.g.g.g.g.g.Q   ",
"g.g.g.g.f.g.g.g.g.g.g.g.g.g.f.g.g.g.g.g.g.g.g.g.g.g.g.g.g.g.g.f.g.g.g.u.( 5 2 ; q q < U &.s.g.g.g.f.g.g.#.f f @.g.g.g.g.g.g.Q   ",
"g.g.g.g.g.g.g.g.g.g.g.g.g.g.g.g.g.g.g.g.g.g.g.g.g.g.g.g.g.g.g.g.g.g.g.g.g.s.t.( 3 q q q : 7 T &.s.g.g.g.O.f g 7.g.g.g.g.g.g.=   ",
"g.f.g.g.f.g.g.g.g.g.g.g.g.g.g.g.g.g.g.g.g.g.g.g.g.g.f.g.g.g.g.f.g.g.g.g.g.g.g.g.t.( 5 > q q q ; 7 2.g.i.n f a 0.g.g.g.g.g.g.Q   ",
"g.g.g.g.g.g.g.g.g.g.g.g.f.g.g.g.g.g.g.g.g.g.g.g.g.g.g.g.g.g.g.g.g.g.g.g.g.g.f.g.f.g.s.>.I 5 > q q < ! X.f f K g.g.g.g.g.g.g.Q   ",
"g.g.g.g.g.g.g.g.f.g.g.g.g.g.g.g.g.g.g.g.g.g.g.g.g.g.g.g.g.g.g.g.g.g.g.g.g.g.g.g.f.g.g.g.s.s.:.I : q ; w u h 4.g.g.g.g.g.g.g.Q   ",
"g.g.g.g.f.g.g.g.g.g.g.g.g.g.g.g.g.g.g.g.g.g.g.g.g.g.g.g.g.g.g.g.g.g.g.g.g.g.g.g.g.g.g.g.g.g.g.s._ 2 % % ; w T e.g.g.g.g.g.g.Q   ",
"g.g.g.g.g.g.g.g.g.g.g.g.g.g.g.g.g.g.g.g.g.g.g.g.g.g.g.f.g.g.g.g.g.g.g.g.g.g.g.g.g.g.g.g.f.g.g.g.g.u.' e % % q < ! s.g.g.g.g.Q   ",
"g.g.g.g.g.g.g.g.g.g.g.g.g.g.g.g.g.g.g.g.g.g.g.g.g.g.g.g.g.g.g.g.g.g.f.g.g.f.g.g.g.g.g.g.g.g.g.g.g.g.X.d p > q q % 7 6.s.g.g.Q   ",
"g.f.g.g.f.g.g.g.f.g.g.g.g.g.g.g.g.g.g.g.g.g.g.g.g.g.g.g.g.f.g.g.g.g.g.g.g.g.g.g.g.g.g.g.g.g.g.g.g.i.n f a 5.( 4 q q q 7 q.g.Q   ",
"g.g.g.g.g.f.g.g.g.g.g.g.g.g.g.g.g.g.g.g.g.g.g.g.g.f.g.g.g.g.g.f.g.g.g.g.g.g.g.g.g.g.g.g.g.g.g.g.g.$.f f J g.g.e.I : q q < #.*   ",
"g.g.g.g.g.g.g.g.g.g.g.g.g.g.g.g.g.g.g.g.g.g.g.g.g.g.g.g.g.g.g.g.g.g.g.g.g.g.g.f.g.g.g.g.g.g.g.g.g.D f d 5.g.g.g.f.8.I : q q +   ",
"g.f.g.g.g.g.g.g.g.g.g.g.g.g.g.f.g.g.g.g.f.g.g.g.g.g.g.g.g.g.g.g.g.g.g.f.g.g.g.g.g.g.g.g.g.g.g.g.g.C f i d.f.g.g.s.g.f.) 3 w @   ",
"g.g.g.g.g.g.g.g.g.g.g.f.g.g.g.g.g.f.g.g.g.g.g.g.g.g.g.g.g.g.g.f.g.g.g.g.g.g.g.g.g.g.g.g.g.g.g.g.p.v f A g.g.g.g.f.f.g.g.e.I $   ",
"g.g.g.g.g.g.g.g.g.g.g.g.g.g.g.g.g.g.g.g.g.g.f.g.g.g.g.g.g.f.g.g.g.g.g.g.g.g.g.g.g.g.g.g.g.g.g.g...f f J g.g.g.g.g.g.g.f.f.f.:.6 ",
"g.g.g.f.g.g.g.f.g.g.f.g.g.g.g.g.g.g.g.g.g.g.g.g.g.f.g.g.g.g.g.g.g.f.g.g.g.g.g.g.g.g.g.f.g.g.g.s.C f a 9.g.g.g.g.g.g.g.g.f.g.g.u.",
"g.g.g.g.g.g.g.g.g.g.g.g.g.g.f.g.g.g.g.g.g.g.g.g.g.g.g.g.g.g.g.g.g.g.g.g.g.g.g.g.g.g.g.g.g.g.g.4.s f A g.g.g.g.g.g.g.g.g.g.g.f.g.",
"g.g.g.g.g.g.g.g.g.g.g.g.g.g.g.g.f.g.g.g.g.g.g.g.g.g.g.g.g.g.g.g.g.g.g.g.f.g.g.g.g.g.g.g.g.g.g.O.f f #.g.g.g.g.g.g.g.g.g.g.g.g.g.",
"g.g.g.g.g.g.g.g.g.g.g.g.g.g.g.g.g.g.g.g.g.g.g.g.g.g.g.g.g.g.g.g.g.f.g.g.f.g.g.g.g.g.g.g.g.g.p.v f c 9.g.g.g.g.g.g.g.g.g.g.f.g.g.",
"g.g.g.g.g.g.g.g.g.g.g.g.g.g.g.f.g.f.g.g.g.g.g.g.f.g.g.g.g.g.g.g.g.g.g.g.g.g.g.g.g.g.g.g.g.g.$.f f J g.g.g.g.g.g.g.g.g.g.g.g.g.g.",
"g.g.g.g.g.g.f.g.g.g.g.g.g.g.g.g.g.g.g.g.g.f.g.g.g.g.g.g.f.g.g.g.g.g.g.g.g.g.g.g.g.g.g.g.g.g.D f g ` g.g.g.g.g.g.f.g.g.g.g.g.g.g.",
"g.g.f.g.g.g.g.g.g.f.g.g.g.g.g.g.g.g.g.g.g.g.g.g.g.g.g.g.g.g.g.g.g.g.g.g.g.g.g.g.g.g.g.g.g.p.v f i d.g.g.g.f.g.g.g.g.g.g.g.g.g.g.",
"f.g.g.g.g.g.g.g.g.g.g.g.g.g.g.f.g.g.g.g.f.g.g.g.g.g.g.g.g.g.g.g.g.g.g.g.f.g.g.g.g.g.g.g.g.$.f f J g.g.g.g.g.g.f.g.g.g.g.g.g.g.g.",
"g.g.g.g.g.g.g.g.g.g.g.f.g.g.g.g.f.g.g.g.g.g.g.g.g.g.g.g.g.g.f.g.g.g.g.g.g.g.g.g.g.g.g.g.g.D f d ` g.g.g.g.g.g.g.g.g.g.g.g.f.g.g.",
"g.g.g.g.g.g.g.g.g.g.g.g.g.g.g.g.g.g.g.g.g.g.g.g.g.g.g.g.g.g.g.g.g.g.g.g.g.g.g.g.g.g.g.g.p.v f i d.g.g.g.g.g.g.g.g.g.g.g.g.g.g.g.",
"g.g.g.g.g.g.f.g.g.g.g.g.g.g.g.g.g.g.g.g.g.g.g.g.g.g.g.f.g.g.g.g.g.f.g.g.f.g.g.g.g.g.g.g.5.d f J g.g.g.g.g.g.g.f.g.g.f.g.g.g.g.g."
};
