/* XPM */
static char *_9c7a47c21414625e4f155d725450b609m9pKoXng6ZmIcaR[] = {
/* columns rows colors chars-per-pixel */
"64 64 256 2 ",
"   c black",
".  c #010101",
"X  c #020202",
"o  c gray1",
"O  c #040404",
"+  c gray2",
"@  c #060606",
"#  c #070707",
"$  c gray3",
"%  c #090909",
"&  c gray4",
"*  c #0B0B0B",
"=  c #0C0C0C",
"-  c gray5",
";  c #0E0E0E",
":  c gray6",
">  c #101010",
",  c #111111",
"<  c gray7",
"1  c #131313",
"2  c gray8",
"3  c #151515",
"4  c #161616",
"5  c gray9",
"6  c #181818",
"7  c #191919",
"8  c gray10",
"9  c #1B1B1B",
"0  c gray11",
"q  c #1D1D1D",
"w  c #1E1E1E",
"e  c gray12",
"r  c #202020",
"t  c gray13",
"y  c #222222",
"u  c #232323",
"i  c gray14",
"p  c #252525",
"a  c gray15",
"s  c #272727",
"d  c #282828",
"f  c gray16",
"g  c #2A2A2A",
"h  c gray17",
"j  c #2C2C2C",
"k  c #2D2D2D",
"l  c gray18",
"z  c #2F2F2F",
"x  c gray19",
"c  c #313131",
"v  c #323232",
"b  c gray20",
"n  c #343434",
"m  c #353535",
"M  c gray21",
"N  c #373737",
"B  c gray22",
"V  c #393939",
"C  c #3A3A3A",
"Z  c gray23",
"A  c #3C3C3C",
"S  c gray24",
"D  c #3E3E3E",
"F  c #3F3F3F",
"G  c gray25",
"H  c #414141",
"J  c gray26",
"K  c #434343",
"L  c #444444",
"P  c gray27",
"I  c #464646",
"U  c gray28",
"Y  c #484848",
"T  c #494949",
"R  c gray29",
"E  c #4B4B4B",
"W  c #4C4C4C",
"Q  c gray30",
"!  c #4E4E4E",
"~  c gray31",
"^  c #505050",
"/  c #515151",
"(  c gray32",
")  c #535353",
"_  c gray33",
"`  c #555555",
"'  c #565656",
"]  c gray34",
"[  c #585858",
"{  c gray35",
"}  c #5A5A5A",
"|  c #5B5B5B",
" . c gray36",
".. c #5D5D5D",
"X. c gray37",
"o. c #5F5F5F",
"O. c #606060",
"+. c gray38",
"@. c #626262",
"#. c gray39",
"$. c #646464",
"%. c #656565",
"&. c gray40",
"*. c #676767",
"=. c #686868",
"-. c DimGray",
";. c #6A6A6A",
":. c gray42",
">. c #6C6C6C",
",. c #6D6D6D",
"<. c gray43",
"1. c #6F6F6F",
"2. c gray44",
"3. c #717171",
"4. c #727272",
"5. c gray45",
"6. c #747474",
"7. c gray46",
"8. c #767676",
"9. c #777777",
"0. c gray47",
"q. c #797979",
"w. c gray48",
"e. c #7B7B7B",
"r. c #7C7C7C",
"t. c gray49",
"y. c #7E7E7E",
"u. c gray50",
"i. c #808080",
"p. c #818181",
"a. c gray51",
"s. c #838383",
"d. c #848484",
"f. c gray52",
"g. c #868686",
"h. c gray53",
"j. c #888888",
"k. c #898989",
"l. c gray54",
"z. c #8B8B8B",
"x. c gray55",
"c. c #8D8D8D",
"v. c #8E8E8E",
"b. c gray56",
"n. c #909090",
"m. c gray57",
"M. c #929292",
"N. c #939393",
"B. c gray58",
"V. c #959595",
"C. c gray59",
"Z. c #979797",
"A. c #989898",
"S. c gray60",
"D. c #9A9A9A",
"F. c #9B9B9B",
"G. c gray61",
"H. c #9D9D9D",
"J. c gray62",
"K. c #9F9F9F",
"L. c #A0A0A0",
"P. c gray63",
"I. c #A2A2A2",
"U. c gray64",
"Y. c #A4A4A4",
"T. c #A5A5A5",
"R. c gray65",
"E. c #A7A7A7",
"W. c gray66",
"Q. c #A9A9A9",
"!. c #AAAAAA",
"~. c gray67",
"^. c #ACACAC",
"/. c gray68",
"(. c #AEAEAE",
"). c #AFAFAF",
"_. c gray69",
"`. c #B1B1B1",
"'. c #B2B2B2",
"]. c gray70",
"[. c #B4B4B4",
"{. c gray71",
"}. c #B6B6B6",
"|. c #B7B7B7",
" X c gray72",
".X c #B9B9B9",
"XX c gray73",
"oX c #BBBBBB",
"OX c #BCBCBC",
"+X c gray74",
"@X c gray",
"#X c gray75",
"$X c #C0C0C0",
"%X c #C1C1C1",
"&X c gray76",
"*X c #C3C3C3",
"=X c gray77",
"-X c #C5C5C5",
";X c #C6C6C6",
":X c gray78",
">X c #C8C8C8",
",X c gray79",
"<X c #CACACA",
"1X c #CBCBCB",
"2X c gray80",
"3X c #CDCDCD",
"4X c #CECECE",
"5X c gray81",
"6X c #D0D0D0",
"7X c gray82",
"8X c #D2D2D2",
"9X c LightGray",
"0X c gray83",
"qX c #D5D5D5",
"wX c gray84",
"eX c #D7D7D7",
"rX c #D8D8D8",
"tX c gray85",
"yX c #DADADA",
"uX c gray86",
"iX c gainsboro",
"pX c #DDDDDD",
"aX c gray87",
"sX c #DFDFDF",
"dX c gray88",
"fX c #E1E1E1",
"gX c #E2E2E2",
"hX c gray89",
"jX c #E4E4E4",
"kX c gray90",
"lX c #E6E6E6",
"zX c #E7E7E7",
"xX c gray91",
"cX c #E9E9E9",
"vX c #EAEAEA",
"bX c gray92",
"nX c #ECECEC",
"mX c gray93",
"MX c #EEEEEE",
"NX c #EFEFEF",
"BX c gray94",
"VX c #F1F1F1",
"CX c gray95",
"ZX c #F3F3F3",
"AX c #F4F4F4",
"SX c gray96",
"DX c #F6F6F6",
"FX c gray97",
"GX c #F8F8F8",
"HX c #F9F9F9",
"JX c gray98",
"KX c #FBFBFB",
"LX c gray99",
"PX c #FDFDFD",
"IX c #FEFEFE",
"UX c white",
/* pixels */
"D.C.c.M.M.x.m.k.z.p.8.L.V.l.M.N.k.h.b.j.w.k.F.m.x.n.M.v.k.c.x.4.A.S.x.b.N.x.v.z.x.y.q.G.C.k.M.B.l.h.b.h.q.k.G.m.z.C.x.x.v.b.a.6.",
"j.u.p.u.u.r.t.r.y.2.,.f.y.s.u.t.r.r.r.r.&.e.f.y.d.y.q.r.r.r.w.=.f.i.p.y.p.r.e.t.u.4.>.g.r.s.u.t.t.r.r.r.&.e.f.y.s.u.0.r.r.y.0.#.",
"j.9.p.e.u.i.y.y.i.,.7.i.9.f.q.y.i.p.w.a.%.t.u.e.u.u.e.i.i.y.0.=.d.9.p.e.p.p.r.u.u.4.2.d.7.d.w.t.i.p.w.a.%.t.u.w.u.q.y.a.r.y.t.X.",
"c.0.y.w.i.i.p.q.p.<.r.g.q.u.9.d.u.u.q.s.>.p.i.t.8.a.p.p.e.u.e.>.l.9.t.e.p.p.p.w.y.5.7.k.w.r.r.d.y.y.q.s.,.p.i.r.0.r.f.a.q.t.i.$.",
"6.=.&.*.$.@.>.X.;.O.*.4.*.*.&.=.*.#.#.-.+.>.<.-.$.-.%.=.o.*.-.+.5.*.&.*.$.@.<.o.=.#.$.4.;.+.>.&.&.#.$.;.+.>.<.-.&.*.&.*.@.$.-.O.",
"a.a.p.d.8.q.z.y.a.p.u.d.i.s.d.1.l.p.s.a.a.a.f.u.g.0.6.l.i.s.d.i.s.p.p.f.6.q.c.u.s.s.u.s.d.t.j.:.k.p.s.a.a.a.f.y.h.w.4.j.f.p.i.d.",
"u.i.p.d.2.p.x.p.a.i.y.i.u.d.s.*.n.f.s.p.s.u.a.t.j.5.4.N.s.s.s.y.i.y.s.g.<.p.v.i.s.p.u.i.i.s.a.&.m.f.s.p.s.u.a.t.h.7.3.N.d.s.i.u.",
"s.r.y.t.=.f.p.7.p.0.t.i.t.y.e.;.j.r.0.w.t.t.u.t.d.4.5.x.6.w.i.q.s.w.p.p.&.f.s.5.u.9.r.a.e.a.q.>.j.r.0.q.r.t.i.y.p.5.5.b.1.r.i.8.",
"r.y.d.i.+.i.k.u.i.w.u.r.a.g.5.&.c.f.u.e.r.e.u.p.f.;.1.b.p.w.u.r.e.r.d.u.#.p.f.i.u.e.t.y.i.k.4.*.z.a.a.e.u.q.i.p.d.>.>.b.y.i.i.q.",
"-.-.:.<.%.9.8.6.5.<.-.>.=.:.>.=.9.4.8.3.1.;.,.=.>.;.:.9.6.5.6.;.;.1.-.,.&.6.8.5.4.<.=.,.*.>.>.=.9.5.7.3.,.;.,.;.:.:.:.e.4.6.4.>.",
"9.4.2.4.9.8.,.6.<.:.%.q.1.1.9.6.6.1.6.1.-.>.9.3.,.q.6.<.6.5.1.#.4.w.>.3.q.4.5.6.<.;.%.0.2.<.0.6.5.3.4.3.$.<.7.5.,.0.6.5.7.4.>.%.",
"F.m.n.x.M.j.s.z.h.r.w.D.b.n.b.z.l.h.h.f.8.h.V.N.x.m.x.d.c.f.a.9.n.B.v.x.B.g.h.l.h.w.r.Z.M.v.m.z.j.j.g.j.7.k.N.M.v.b.j.f.b.g.u.4.",
"h.8.t.q.t.q.t.e.p.;.:.a.9.y.9.e.q.r.9.t.#.w.y.e.y.q.e.e.y.9.0.%.p.0.p.q.t.e.e.q.p.=.,.i.w.t.q.e.q.e.q.t.&.q.y.w.y.q.q.0.u.q.9...",
"c.9.i.u.i.d.h.q.f.3.9.s.q.i.e.g.i.d.r.d.>.p.y.t.u.t.s.d.u.i.a.&.z.0.s.r.u.h.g.r.d.2.9.a.w.i.r.h.a.s.y.i.<.y.i.t.t.y.h.a.u.i.s.@.",
"f.6.0.8.7.q.0.,.6.<.5.r.0.8.7.w.9.0.4.7.:.0.q.0.6.8.9.w.2.8.0.$.s.7.8.7.8.w.e.4.6.<.4.t.9.9.7.e.q.0.3.5.:.0.q.0.6.7.w.0.4.6.0.@.",
"4.-.:.-.%.=.-.;.;.:.*.1.2.&.-.$.=.=.-.=.:.<.1.:.=.;.&.,.$.-.,.;.2.<.%.;.;.$.:.=.-.>.$.4.<.-.=.%.*.-.&.>.;.3.>.-.,.&.@.-.;.=.>.*.",
"p.z.g.b.0.i.x.c.g.z.g.j.f.l.n.:.n.b.j.j.g.z.g.s.c.y.0.V.z.j.f.k.s.k.h.n.7.p.n.z.h.z.f.j.g.z.n.;.n.b.h.j.f.z.g.d.l.p.w.M.j.x.k.h.",
"d.t.r.u.>.s.g.0.t.w.t.u.w.w.e.>.z.a.w.t.t.y.t.t.p.3.2.z.w.r.y.0.g.w.w.u.:.g.z.8.t.w.r.u.w.e.e.:.z.a.w.r.t.y.t.t.f.4.3.c.r.r.y.w.",
"a.q.s.y.$.a.f.8.f.0.q.y.d.j.8.*.z.r.9.r.y.e.t.u.a.<.5.v.w.t.s.q.t.0.l.a.o.t.h.e.g.0.0.y.d.j.8.&.z.r.0.r.u.e.t.u.s.;.<.v.w.0.y.0.",
"0.q.d.u.-.y.h.p.e.r.w.w.q.y.5.=.z.u.y.i.u.w.y.t.y.>.2.l.t.w.u.e.e.q.a.y.;.p.j.r.e.r.q.w.q.y.5.=.l.y.u.p.u.e.t.r.u.<.4.x.u.t.a.t.",
"@.%.O.&.#.;.1.:.-.>.X.*.$.&.-.$.1.;.>.=.X.+.*.#.-.*.$.3.<.:.-.$.$.&.X.#.%.,.1.*.=.>.X.*.$.%.-.$.<.;.>.-.o.+.*.@.&.%.@.<.>.;.*.@.",
"k.k.e.a.h.i.p.y.u.9.*.g.f.i.s.u.y.i.p.t.,.y.h.s.e.g.u.e.y.p.q.;.u.z.p.d.d.e.u.d.y.9.=.g.f.i.s.u.y.i.p.y.<.y.h.s.p.h.i.i.s.i.0.,.",
"M.x.j.k.g.i.p.p.u.0.0.Z.l.f.g.z.y.s.i.s.,.f.c.k.f.l.f.a.s.f.i.:.v.x.g.h.k.s.i.a.y.0.q.A.l.d.g.z.u.s.i.a.,.f.c.k.g.j.d.s.s.a.e.=.",
"h.7.y.t.0.y.y.r.p.,.:.i.8.a.e.q.r.u.w.i.$.r.t.0.a.9.0.p.y.w.q.*.p.9.y.e.w.u.r.y.i.,.>.i.8.p.e.w.t.u.w.i.$.e.t.0.y.w.e.y.e.t.e.@.",
"x.e.r.9.j.k.i.r.p.7.7.d.r.e.t.f.i.h.w.u.,.s.t.r.q.u.h.f.r.u.i.&.j.w.t.8.h.k.u.q.p.7.7.d.r.e.t.f.s.a.y.i.:.u.a.q.q.u.h.g.t.u.u.#.",
"r.4.1.<.,.-.<.;.2.*.,.7.4.<.3.2.=.<.*.1.#.7.5.5.1.2.:.,.*.>.1.$.w.4.2.1.>.-.<.-.2.*.,.7.4.<.3.2.:.-.=.3.@.6.9.2.2.2.:.>.*.>.<.@.",
"9.6.3.q.-.>.r.4.8.1.0.8.0.3.6.-.8.7.5.9.2.0.8.7.5.2.-.0.5.7.6.6.0.6.3.e.-.:.r.5.8.1.0.8.0.3.6.-.q.5.2.w.<.w.q.4.7.3.=.9.5.8.6.6.",
"g.s.s.c.8.k.V.s.k.f.k.f.g.h.d.4.V.x.k.l.j.h.g.s.k.t.w.C.l.k.g.g.j.a.s.v.9.j.B.f.k.f.k.f.g.h.d.4.Z.x.g.c.d.k.g.p.z.y.w.C.z.l.h.g.",
"p.r.i.y.$.s.d.4.t.e.w.t.w.s.q.%.k.r.0.q.t.r.y.r.g.<.,.x.9.9.r.0.a.e.u.u.$.p.s.7.t.e.w.t.w.s.q.%.k.t.9.t.q.t.t.r.h.<.,.c.0.0.r.9.",
"u.u.d.r.%.d.d.t.u.t.w.a.r.f.0.&.x.i.e.r.t.y.i.u.s.<.3.x.w.e.a.e.u.y.s.r.$.a.s.y.u.t.w.a.r.f.0.&.z.p.e.t.r.t.u.i.s.<.3.c.r.r.a.q.",
"3.8.8.8.:.r.y.u.w.6.6.0.7.9.5.*.d.y.w.w.6.7.8.9.6.<.4.s.t.q.e.7.2.8.8.7.-.e.y.u.w.6.6.0.7.9.5.*.f.u.e.q.8.6.7.8.6.<.3.a.y.w.e.5.",
"$.;.+.:.;.;.:.:.;.O.%.$.*.%.,.=.:.;.;.>.@.%.&.=.*.>.=.:.1.*.%.#.@.:.@.;.=.;.>.-.;.O.%.$.*.%.,.=.>.:.;.=.*.$.&.*.=.:.*.;.1.*.%.@.",
"V.M.l.v.x.g.z.d.z.0.0.A.B.z.z.v.g.g.h.k.4.l.V.v.k.z.z.l.h.h.f.3.m.B.k.x.v.g.k.h.k.w.0.G.m.z.k.n.g.f.l.h.6.j.Z.v.g.M.k.k.k.l.t.2.",
"l.p.s.p.i.y.u.t.r.4.<.j.t.p.u.y.t.y.w.u.$.y.d.u.s.u.q.e.y.t.q.-.h.a.a.u.a.y.t.u.t.3.>.g.u.a.i.t.r.y.e.u.$.t.d.u.s.u.q.y.r.y.0.%.",
"j.7.y.w.u.p.y.r.e.7.<.h.8.u.y.y.p.s.w.s.%.u.u.e.r.p.t.u.p.p.0.=.g.8.y.0.i.p.r.y.t.5.1.s.w.u.i.r.p.s.q.d.$.i.y.r.i.e.i.d.t.u.u.O.",
"c.0.t.w.p.a.a.q.u.6.2.h.w.e.t.i.y.y.0.p.>.i.i.r.5.a.i.u.e.y.0.;.z.9.t.w.p.a.a.w.t.6.6.h.w.9.y.a.t.u.8.d.-.a.y.t.9.r.f.a.0.r.u.#.",
"6.-.=.=.%.@.<.O.>.@.$.2.;.$.;.%.*.#.#.-.+.>.<.-.%.-.@.=.+.%.&.$.5.=.=.-.%.@.1.+.;.#.%.4.*.$.-.*.&.$.+.:.o.,.,.;.*.*.&.*.@.$.-.O.",
"i.p.p.s.6.8.k.y.s.i.f.a.p.i.f.2.l.p.p.s.p.s.d.y.k.q.3.z.s.p.p.f.u.u.p.g.5.8.z.y.d.p.i.d.u.d.d.1.k.a.p.d.i.s.d.u.j.w.4.j.g.a.p.d.",
"i.p.s.f.3.a.c.a.i.i.p.i.y.p.p.=.n.g.i.s.i.a.u.r.j.5.3.M.f.p.i.u.i.u.d.j.1.a.b.a.a.i.y.i.y.d.p.*.b.f.p.s.i.p.i.r.h.7.2.M.d.d.i.y.",
"d.r.t.r.=.g.p.6.i.w.9.s.t.p.r.-.j.u.7.u.q.a.y.u.p.5.5.l.6.w.y.8.f.w.u.i.&.f.d.5.u.q.e.p.u.t.t.;.j.y.9.t.e.i.u.u.a.5.3.v.2.t.i.7.",
"u.e.h.y.O.s.g.u.u.e.t.y.i.k.4.&.l.d.i.t.r.e.u.p.f.-.3.c.d.0.p.e.e.r.d.u.#.p.f.i.u.e.t.y.i.k.4.&.z.h.y.q.y.r.r.s.d.,.,.n.y.i.i.w.",
"-.-.;.<.%.9.9.5.4.1.=.,.*.>.>.=.9.5.8.3.<.-.<.;.>.-.>.8.7.5.6.;.;.<.-.,.&.6.8.5.4.1.=.,.*.>.>.=.7.6.7.1.3.:.:.;.;.:.:.e.3.5.4.>.",
"7.8.>.5.q.4.3.5.1.;.&.0.2.<.0.6.6.2.6.<.*.:.9.5.>.q.6.1.5.6.1.#.3.q.:.3.0.4.5.5.1.;.&.0.2.<.0.6.4.3.6.<.;.,.7.4.>.0.6.5.6.3.:.%.",
"S.M.b.c.M.f.f.x.j.w.r.Z.M.v.n.l.j.h.j.h.9.j.B.M.x.M.l.h.l.h.p.0.n.B.v.x.N.f.g.k.j.w.r.Z.M.v.n.l.k.j.h.f.8.h.B.N.v.b.k.f.b.g.u.5.",
"h.6.i.q.r.w.e.t.p.=.,.i.w.r.0.e.0.r.0.y.%.e.t.w.t.e.q.t.e.q.9.&.i.0.i.0.r.q.w.9.p.=.,.i.w.r.0.e.w.r.0.y.#.w.y.e.y.q.w.0.u.q.9.X.",
"c.6.s.t.u.h.s.e.f.2.0.a.w.u.r.g.a.f.e.s.:.p.u.y.u.t.a.f.y.p.p.*.z.0.s.r.u.g.f.e.f.2.0.a.w.u.r.g.p.s.t.g.;.i.i.r.t.y.h.a.y.u.a.@.",
"g.5.q.8.7.w.9.,.6.<.4.t.9.9.6.w.q.0.3.6.;.q.q.0.6.7.0.q.3.7.0.$.d.8.8.7.8.q.w.3.6.<.4.t.9.9.6.w.0.8.4.9.-.0.e.9.5.7.w.0.3.5.0.@.",
"4.>.*.-.*.&.>.=.;.>.$.4.<.=.=.$.=.=.=.-.,.1.<.-.-.-.=.;.*.*.<.;.3.1.&.:.;.#.;.*.;.>.$.4.<.=.=.$.;.&.-.:.=.,.3.-.,.*.#.-.;.=.,.=.",
"s.l.s.c.q.s.c.z.h.z.h.j.f.k.b.:.M.c.j.l.s.z.l.s.l.u.q.N.k.k.h.j.d.k.g.n.7.p.n.z.j.l.k.j.f.z.v.>.n.b.h.j.f.z.g.d.l.u.q.M.j.z.k.j.",
"a.r.e.u.>.s.h.q.t.w.t.i.w.w.e.>.c.i.w.y.e.y.i.t.d.3.2.v.r.e.y.e.g.w.q.u.:.h.z.7.t.0.u.y.q.e.q.>.z.a.w.r.t.y.t.t.f.4.3.c.r.r.y.w.",
"y.q.j.i.@.y.f.e.f.0.q.y.d.j.8.*.x.e.0.y.t.e.u.u.s.>.2.v.q.0.y.0.y.0.k.p.o.t.h.w.f.8.w.t.s.k.6.*.z.r.0.r.u.e.t.u.s.,.2.v.q.q.u.9.",
"u.0.y.r.>.d.h.e.w.r.q.w.q.y.5.-.z.y.u.p.u.e.y.r.u.4.7.x.t.t.a.e.r.q.a.t.;.a.j.r.e.w.e.w.q.i.4.;.l.y.u.p.u.e.t.r.y.3.6.z.y.u.d.e.",
"$.&.O.%.$.;.1.-.=.>.X.*.$.&.;.%.<.:.>.=.o.@.*.#.%.&.$.,.;.;.=.+.$.&.X.#.%.,.1.&.-.:.O.*.$.=.-.&.<.;.>.-.o.+.*.@.$.&.#.>.;.>.-.O.",
"a.l.p.g.s.q.i.f.y.9.*.g.f.i.s.u.t.a.p.r.1.y.g.d.y.g.u.u.p.p.w.1.i.z.i.d.f.e.i.d.y.7.=.d.d.p.p.u.y.i.p.y.<.y.h.s.y.h.i.y.p.p.q.>.",
"V.l.s.h.k.f.s.u.u.0.0.Z.l.f.g.z.y.g.i.i.1.g.z.z.d.g.a.a.s.a.t.,.v.x.g.g.k.s.i.a.u.8.q.C.k.g.d.z.u.s.i.a.,.f.c.k.f.j.d.a.s.a.e.=.",
"f.7.i.y.9.r.y.y.p.<.>.i.8.a.e.0.r.s.q.t.&.r.e.e.i.q.w.i.r.r.r.*.a.9.y.e.e.u.r.t.a.,.<.i.8.d.q.q.t.u.w.i.$.e.t.0.i.w.e.i.r.r.e.#.",
"c.e.r.8.h.j.i.y.p.7.7.f.t.t.y.f.u.s.t.t.,.u.u.r.w.i.j.g.t.i.p.&.h.w.y.9.j.l.i.w.i.8.5.h.w.u.r.g.a.p.y.i.;.y.p.q.w.i.g.f.r.u.i.%.",
"e.4.2.1.<.-.,.-.1.&.,.7.4.<.2.1.>.<.;.3.%.8.8.5.1.2.:.>.&.:.<.$.w.4.2.<.:.=.,.-.<.*.;.9.2.1.1.1.>.:.:.4.#.7.q.4.<.1.:.,.=.>.,.O.",
"9.7.4.e.:.,.t.4.8.2.q.9.0.3.5.=.9.6.2.0.<.q.8.4.7.3.-.9.5.7.6.7.q.8.4.w.-.:.r.6.8.3.9.0.8.5.4.=.0.4.2.q.,.0.0.3.6.2.=.0.6.8.5.4.",
"j.d.s.x.8.k.C.d.l.g.l.g.h.h.d.4.C.x.g.v.f.l.h.s.l.t.w.Z.z.l.h.h.j.s.s.b.0.j.V.f.l.g.k.g.g.h.d.4.Z.x.h.v.d.k.g.a.x.y.q.V.k.k.h.h.",
"p.r.u.t.@.a.d.5.r.w.q.r.w.s.q.&.j.r.9.t.q.t.y.t.f.,.,.x.0.0.e.9.i.w.u.i.%.p.s.6.r.w.w.r.e.s.w.&.j.t.9.t.0.r.r.r.h.<.>.l.8.9.r.9.",
"y.u.f.y.*.f.d.r.u.t.e.a.t.g.q.=.z.u.r.u.w.r.i.u.s.<.4.v.r.r.s.e.y.y.d.t.&.d.d.y.i.r.r.p.u.f.w.=.l.i.e.t.e.r.y.i.a.<.4.b.t.t.a.q.",
"2.7.8.9.>.r.y.y.w.6.6.0.7.9.5.=.j.u.y.t.8.7.q.9.6.<.4.a.t.q.r.7.2.8.8.7.-.e.y.u.e.5.8.8.9.7.6.=.f.i.r.w.0.7.8.0.5.,.4.d.u.w.e.4.",
"+.*...*.%.%.=.=.*...+.O.@.O.-.$.*.+.%.%.o.X.$.+.$.=.#.&.;.#.+.O.o.=.X.$.@.%.=.&.=. .#...%.o.;.$.%.$.$.@.+.X.o.+.%.=.#.%.;.#.+.O."
};
